<svg xmlns="http://www.w3.org/2000/svg" viewBox="0 0 1000 320" width="1000" height="320" role="img" aria-label="Daksh Yadav, Software and AI Engineer, IIT Kharagpur"><defs><pattern id="gbannerl" width="20" height="20" patternUnits="userSpaceOnUse"><path d="M20 0H0V20" fill="none" stroke="#ebe9e2" stroke-width="1"/></pattern><pattern id="mbannerl" width="100" height="100" patternUnits="userSpaceOnUse"><path d="M100 0H0V100" fill="none" stroke="#dedbd2" stroke-width="1"/></pattern></defs><rect width="1000" height="320" rx="10" fill="#f6f5f1"/><rect width="1000" height="320" rx="10" fill="url(#gbannerl)"/><rect width="1000" height="320" rx="10" fill="url(#mbannerl)"/><rect x="10.5" y="10.5" width="979" height="299" rx="6" fill="none" stroke="#c9c5b9"/><text x="32" y="36" font-family="ui-monospace,SFMono-Regular,Menlo,Consolas,monospace" font-size="10.5" letter-spacing="1.6" fill="#6b6f76">SHEET 01 / 06  ·  PROFILE</text><line x1="32" y1="46" x2="968" y2="46" stroke="#c9c5b9"/><text x="48" y="150" font-family="Georgia,'Times New Roman',serif" font-size="66" fill="#15171a">Daksh Yadav</text><text x="50" y="188" font-family="-apple-system,'Segoe UI','Helvetica Neue',Helvetica,Arial,sans-serif" font-size="20" fill="#6b6f76">Software &amp; AI Engineer</text><text x="50" y="214" font-family="ui-monospace,SFMono-Regular,Menlo,Consolas,monospace" font-size="11.5" letter-spacing="1.8" fill="#a3a29b">IIT KHARAGPUR  ·  B.TECH.  ·  CLASS OF 2027</text><line x1="50" y1="240" x2="430" y2="240" stroke="#a3a29b"/><line x1="50" y1="234" x2="50" y2="246" stroke="#a3a29b"/><line x1="430" y1="234" x2="430" y2="246" stroke="#a3a29b"/><rect x="212" y="232" width="66" height="16" fill="#f6f5f1"/><text x="245" y="244" text-anchor="middle" font-family="ui-monospace,SFMono-Regular,Menlo,Consolas,monospace" font-size="10" fill="#a3a29b">SCALE 1:1</text><rect x="588" y="80" width="112" height="24" rx="4" fill="#f6f5f1" stroke="#c9c5b9"/><text x="644" y="96" text-anchor="middle" font-family="ui-monospace,SFMono-Regular,Menlo,Consolas,monospace" font-size="11" fill="#6b6f76">affordance</text><path d="M700 92 C 765 92, 775 160, 804 160" fill="none" stroke="#c9c5b9" stroke-width="1.2"/><circle r="3" fill="#2f5fd0" opacity="0"><animateMotion dur="3.4s" begin="0.00s" repeatCount="indefinite" path="M700 92 C 765 92, 775 160, 804 160"/><animate attributeName="opacity" values="0;1;1;0" dur="3.4s" begin="0.00s" repeatCount="indefinite"/></circle><rect x="588" y="114" width="112" height="24" rx="4" fill="#f6f5f1" stroke="#c9c5b9"/><text x="644" y="130" text-anchor="middle" font-family="ui-monospace,SFMono-Regular,Menlo,Consolas,monospace" font-size="11" fill="#6b6f76">semantics</text><path d="M700 126 C 765 126, 775 160, 804 160" fill="none" stroke="#c9c5b9" stroke-width="1.2"/><circle r="3" fill="#2f5fd0" opacity="0"><animateMotion dur="3.4s" begin="0.55s" repeatCount="indefinite" path="M700 126 C 765 126, 775 160, 804 160"/><animate attributeName="opacity" values="0;1;1;0" dur="3.4s" begin="0.55s" repeatCount="indefinite"/></circle><rect x="588" y="148" width="112" height="24" rx="4" fill="#f6f5f1" stroke="#c9c5b9"/><text x="644" y="164" text-anchor="middle" font-family="ui-monospace,SFMono-Regular,Menlo,Consolas,monospace" font-size="11" fill="#6b6f76">structure</text><path d="M700 160 C 765 160, 775 160, 804 160" fill="none" stroke="#c9c5b9" stroke-width="1.2"/><circle r="3" fill="#2f5fd0" opacity="0"><animateMotion dur="3.4s" begin="1.10s" repeatCount="indefinite" path="M700 160 C 765 160, 775 160, 804 160"/><animate attributeName="opacity" values="0;1;1;0" dur="3.4s" begin="1.10s" repeatCount="indefinite"/></circle><rect x="588" y="182" width="112" height="24" rx="4" fill="#f6f5f1" stroke="#c9c5b9"/><text x="644" y="198" text-anchor="middle" font-family="ui-monospace,SFMono-Regular,Menlo,Consolas,monospace" font-size="11" fill="#6b6f76">context</text><path d="M700 194 C 765 194, 775 160, 804 160" fill="none" stroke="#c9c5b9" stroke-width="1.2"/><circle r="3" fill="#2f5fd0" opacity="0"><animateMotion dur="3.4s" begin="1.65s" repeatCount="indefinite" path="M700 194 C 765 194, 775 160, 804 160"/><animate attributeName="opacity" values="0;1;1;0" dur="3.4s" begin="1.65s" repeatCount="indefinite"/></circle><rect x="588" y="216" width="112" height="24" rx="4" fill="#f6f5f1" stroke="#c9c5b9"/><text x="644" y="232" text-anchor="middle" font-family="ui-monospace,SFMono-Regular,Menlo,Consolas,monospace" font-size="11" fill="#6b6f76">index</text><path d="M700 228 C 765 228, 775 160, 804 160" fill="none" stroke="#c9c5b9" stroke-width="1.2"/><circle r="3" fill="#2f5fd0" opacity="0"><animateMotion dur="3.4s" begin="2.20s" repeatCount="indefinite" path="M700 228 C 765 228, 775 160, 804 160"/><animate attributeName="opacity" values="0;1;1;0" dur="3.4s" begin="2.20s" repeatCount="indefinite"/></circle><circle cx="830" cy="160" r="26" fill="#f6f5f1" stroke="#2f5fd0" stroke-width="1.4"/><circle cx="830" cy="160" r="22" fill="none" stroke="#2f5fd0" opacity="0.5"><animate attributeName="r" values="26;38" dur="3.4s" repeatCount="indefinite"/><animate attributeName="opacity" values="0.5;0" dur="3.4s" repeatCount="indefinite"/></circle><text x="830" y="164" text-anchor="middle" font-family="ui-monospace,SFMono-Regular,Menlo,Consolas,monospace" font-size="10" fill="#2f5fd0">router</text><line x1="856" y1="160" x2="924" y2="160" stroke="#2f5fd0" stroke-width="1.2"/><path d="M918 156 L924 160 L918 164" fill="none" stroke="#2f5fd0" stroke-width="1.2"/><rect x="926" y="148" width="34" height="24" rx="4" fill="#2f5fd0"/><text x="943" y="164" text-anchor="middle" font-family="ui-monospace,SFMono-Regular,Menlo,Consolas,monospace" font-size="9.5" fill="#f6f5f1">DOM</text><text x="588" y="272" font-family="ui-monospace,SFMono-Regular,Menlo,Consolas,monospace" font-size="10" letter-spacing="1.2" fill="#a3a29b">FIG. 1  —  FIVE-SIGNAL ELEMENT RESOLVER (GIMBAL)</text><text x="968" y="294" text-anchor="end" font-family="ui-monospace,SFMono-Regular,Menlo,Consolas,monospace" font-size="10" fill="#a3a29b">REV 2026.09</text></svg>