<svg xmlns="http://www.w3.org/2000/svg" viewBox="0 0 1000 272" width="1000" height="272" role="img" aria-label="Most used languages across public repositories"><defs><pattern id="glangesd" width="20" height="20" patternUnits="userSpaceOnUse"><path d="M20 0H0V20" fill="none" stroke="#151a20" stroke-width="1"/></pattern><pattern id="mlangesd" width="100" height="100" patternUnits="userSpaceOnUse"><path d="M100 0H0V100" fill="none" stroke="#1d232b" stroke-width="1"/></pattern></defs><rect width="1000" height="272" rx="10" fill="#0d0f12"/><rect width="1000" height="272" rx="10" fill="url(#glangesd)"/><rect width="1000" height="272" rx="10" fill="url(#mlangesd)"/><rect x="10.5" y="10.5" width="979" height="251" rx="6" fill="none" stroke="#2a3038"/><text x="32" y="36" font-family="ui-monospace,SFMono-Regular,Menlo,Consolas,monospace" font-size="10.5" letter-spacing="1.6" fill="#8a9099">SHEET 06 / 06  ·  LANGUAGES BY CODE VOLUME</text><line x1="32" y1="46" x2="968" y2="46" stroke="#2a3038"/><text x="32" y="88" font-family="-apple-system,'Segoe UI','Helvetica Neue',Helvetica,Arial,sans-serif" font-size="13.5" fill="#e8e9eb">Python</text><rect x="200" y="80" width="646" height="8" rx="4" fill="#2a3038" opacity="0.5"/><rect x="200" y="80" width="646.0" height="8" rx="4" fill="#8fb4ff"/><text x="968" y="88" text-anchor="end" font-family="ui-monospace,SFMono-Regular,Menlo,Consolas,monospace" font-size="11.5" fill="#8a9099">45.4%</text><text x="32" y="118" font-family="-apple-system,'Segoe UI','Helvetica Neue',Helvetica,Arial,sans-serif" font-size="13.5" fill="#e8e9eb">TypeScript</text><rect x="200" y="110" width="646" height="8" rx="4" fill="#2a3038" opacity="0.5"/><rect x="200" y="110" width="543.8" height="8" rx="4" fill="#a7b4c9"/><text x="968" y="118" text-anchor="end" font-family="ui-monospace,SFMono-Regular,Menlo,Consolas,monospace" font-size="11.5" fill="#8a9099">38.2%</text><text x="32" y="148" font-family="-apple-system,'Segoe UI','Helvetica Neue',Helvetica,Arial,sans-serif" font-size="13.5" fill="#e8e9eb">JavaScript</text><rect x="200" y="140" width="646" height="8" rx="4" fill="#2a3038" opacity="0.5"/><rect x="200" y="140" width="179.0" height="8" rx="4" fill="#8ea2c0"/><text x="968" y="148" text-anchor="end" font-family="ui-monospace,SFMono-Regular,Menlo,Consolas,monospace" font-size="11.5" fill="#8a9099">12.6%</text><text x="32" y="178" font-family="-apple-system,'Segoe UI','Helvetica Neue',Helvetica,Arial,sans-serif" font-size="13.5" fill="#e8e9eb">PL/pgSQL</text><rect x="200" y="170" width="646" height="8" rx="4" fill="#2a3038" opacity="0.5"/><rect x="200" y="170" width="26.6" height="8" rx="4" fill="#b9c2d0"/><text x="968" y="178" text-anchor="end" font-family="ui-monospace,SFMono-Regular,Menlo,Consolas,monospace" font-size="11.5" fill="#8a9099">1.9%</text><text x="32" y="208" font-family="-apple-system,'Segoe UI','Helvetica Neue',Helvetica,Arial,sans-serif" font-size="13.5" fill="#e8e9eb">C++</text><rect x="200" y="200" width="646" height="8" rx="4" fill="#2a3038" opacity="0.5"/><rect x="200" y="200" width="15.9" height="8" rx="4" fill="#7f92ad"/><text x="968" y="208" text-anchor="end" font-family="ui-monospace,SFMono-Regular,Menlo,Consolas,monospace" font-size="11.5" fill="#8a9099">1.1%</text><text x="32" y="238" font-family="-apple-system,'Segoe UI','Helvetica Neue',Helvetica,Arial,sans-serif" font-size="13.5" fill="#e8e9eb">Shell</text><rect x="200" y="230" width="646" height="8" rx="4" fill="#2a3038" opacity="0.5"/><rect x="200" y="230" width="11.0" height="8" rx="4" fill="#565c65"/><text x="968" y="238" text-anchor="end" font-family="ui-monospace,SFMono-Regular,Menlo,Consolas,monospace" font-size="11.5" fill="#8a9099">0.8%</text></svg>